<svg xmlns="http://www.w3.org/2000/svg" width="71.325" height="94.583" viewBox="0 0 71.325 94.583">
  <g id="pin-3" transform="translate(-9 -1)">
    <path id="Path_13916" data-name="Path 13916" d="M44.663,1C27.132,1,9,14.4,9,36.81,9,60.293,42.155,93.718,43.566,95.129a1.55,1.55,0,0,0,2.192,0C47.17,93.718,80.325,60.293,80.325,36.81,80.325,14.4,62.193,1,44.663,1Z" fill="#ffc33b"/>
    <g id="Group_17513" data-name="Group 17513" transform="translate(31.46 17.079)">
      <path id="Path_13917" data-name="Path 13917" d="M393.217,241.224v-3.147H375.878v3.249l1.294-.008v.008Z" transform="translate(-370.942 -238.077)" fill="#171717"/>
      <path id="Path_13918" data-name="Path 13918" d="M357.564,292.224l2.794-2.889a12.078,12.078,0,0,0,7.4,2.435h.466a12.2,12.2,0,0,0,9.114-3.92,12.882,12.882,0,0,0,3.741-9.168,12.321,12.321,0,0,0-2.49-7.558l2.667-2.763-2.219-2.219-2.648,2.648a12.61,12.61,0,0,0-8.4-3.041,12.752,12.752,0,0,0-9.282,3.828,12.418,12.418,0,0,0-3.858,9.078,12.72,12.72,0,0,0,3.181,8.492l-2.773,2.774Zm17.367-20.469a9.954,9.954,0,0,1,.026,14.033,9.232,9.232,0,0,1-6.912,2.944,9.34,9.34,0,0,1-6.112-2.153l-1.666-1.666,0,0a9.3,9.3,0,0,1-2.168-6.1,9.62,9.62,0,0,1,2.956-7.027,9.373,9.373,0,0,1,6.966-3A9.248,9.248,0,0,1,374.931,271.756Z" transform="translate(-354.853 -259.252)" fill="#171717"/>
    </g>
  </g>
</svg>
